<svg xmlns="http://www.w3.org/2000/svg" width="256" height="256" fill="none"><path fill="#F3901D" d="m30.665 142.82 28.65-7.16-5.206-20.832-28.65 7.159z"/><path fill="#F9B355" d="m46.34 88.929-28.91 7.224a8.67 8.67 0 0 0-6.308 10.512l2.377 9.514a8.67 8.67 0 0 0 10.512 6.308l28.91-7.224a8.67 8.67 0 0 0 6.309-10.512l-2.378-9.514A8.67 8.67 0 0 0 46.34 88.93"/><path fill="#F9B355" d="M224.724 136.927a50 50 0 0 0 .084-3.214l-.476-70.136c-.204-29.79-24.537-53.78-54.351-53.576-29.815.2-53.825 24.517-53.621 54.307l.428 63.085-58.032.391c-32.536.22-58.974 27-58.755 59.509.22 32.509 27.022 58.925 59.554 58.706l132.689-.899c32.536-.219 58.974-26.999 58.755-59.508-.136-20.233-10.573-38.106-26.275-48.665"/><path fill="#1C2D4A" d="M185.309 68.09c.724-6.71-4.129-12.738-10.839-13.462s-12.738 4.129-13.462 10.84c-.725 6.71 4.128 12.737 10.839 13.461 6.71.724 12.738-4.129 13.462-10.84"/><path fill="#F3901D" d="m215.08 59.758 14.44-.098c13.949-.095 25.349 11.15 25.444 25.1l.036 5.312c0 .024-.02.044-.044.044l-40.869.278a3.83 3.83 0 0 1-3.854-3.801l-.148-21.764a5.035 5.035 0 0 1 4.999-5.067z"/><path fill="#fff" d="M22 193s14.482 20.92 33.879 21.03c4.443.024 8.121 3.473 8.121 8.007 0 4.844-4.139 7.93-8.89 7.962-14.346.09-27.21-8.827-33.11-36.995z" opacity=".41"/></svg>